HIERARCHY
ROOT root_translation_joint
{
	OFFSET	0	0	0
	CHANNELS 6 Xposition Yposition Zposition Zrotation Xrotation Yrotation
	JOINT torso_x_joint
	{
		OFFSET	0	0.010284	0.327936
		CHANNELS 3  Zrotation Xrotation Yrotation
		JOINT head_x_joint
		{
			OFFSET	0	-0.020052	0.50232
			CHANNELS 3  Zrotation Xrotation Yrotation
			JOINT upper_left_specula_joint
			{
				OFFSET	-0.0873828	0.0381	-0.153156
				CHANNELS 3  Zrotation Xrotation Yrotation
				JOINT upper_left_arm_x_joint
				{
					OFFSET	-0.169296	0	0
					CHANNELS 3  Zrotation Xrotation Yrotation
					JOINT lower_left_arm_joint
					{
						OFFSET	-0.001464	-0.00114	-0.34296
						CHANNELS 3  Zrotation Xrotation Yrotation
						JOINT left_hand_x_joint
						{
							OFFSET	-0.001728	-0.004992	-0.325056
							CHANNELS 3  Zrotation Xrotation Yrotation
							JOINT left_hand_endeffector_joint
							{
								OFFSET	-0.009816	0.007404	-0.21684
								CHANNELS 3  Zrotation Xrotation Yrotation
								End Site
								{
									OFFSET	-2.25979e-05	1.70451e-05	-0.000499198
								}
							}
							JOINT left_hand_cp_1_joint
							{
								OFFSET	0.01757	0.0606	-0.22569
								CHANNELS 3  Zrotation Xrotation Yrotation
								End Site
								{
									OFFSET	3.74876e-05	0.000129297	-0.000481536
								}
							}
							JOINT left_hand_cp_2_joint
							{
								OFFSET	0.01757	-0.06468	-0.22569
								CHANNELS 3  Zrotation Xrotation Yrotation
								End Site
								{
									OFFSET	3.73144e-05	-0.000137365	-0.000479311
								}
							}
							JOINT left_hand_cp_3_joint
							{
								OFFSET	0.01757	-0.06468	-0.02705
								CHANNELS 3  Zrotation Xrotation Yrotation
								End Site
								{
									OFFSET	0.000121547	-0.000447448	-0.000187128
								}
							}
							JOINT left_hand_cp_4_joint
							{
								OFFSET	0.01757	0.0606	-0.02705
								CHANNELS 3  Zrotation Xrotation Yrotation
								End Site
								{
									OFFSET	0.000127969	0.000441372	-0.000197015
								}
							}
						}
					}
				}
			}
			JOINT upper_right_specula_joint
			{
				OFFSET	0.0873852	0.0381	-0.153312
				CHANNELS 3  Zrotation Xrotation Yrotation
				JOINT upper_right_arm_x_joint
				{
					OFFSET	0.16926	0.003768	-0.0003
					CHANNELS 3  Zrotation Xrotation Yrotation
					JOINT lower_right_arm_joint
					{
						OFFSET	-0.005592	-0.007404	-0.342828
						CHANNELS 3  Zrotation Xrotation Yrotation
						JOINT right_hand_x_joint
						{
							OFFSET	-0.004728	-0.003084	-0.325056
							CHANNELS 3  Zrotation Xrotation Yrotation
							JOINT right_hand_endeffector_joint
							{
								OFFSET	-0.000348	0.010884	-0.21684
								CHANNELS 3  Zrotation Xrotation Yrotation
								End Site
								{
									OFFSET	-8.01425e-07	2.50653e-05	-0.000499371
								}
							}
							JOINT right_hand_cp_1_joint
							{
								OFFSET	-0.01229	0.05553	-0.01712
								CHANNELS 3  Zrotation Xrotation Yrotation
								End Site
								{
									OFFSET	-0.000103461	0.000467467	-0.000144121
								}
							}
							JOINT right_hand_cp_2_joint
							{
								OFFSET	-0.01229	-0.06975	-0.01712
								CHANNELS 3  Zrotation Xrotation Yrotation
								End Site
								{
									OFFSET	-8.43349e-05	-0.00047863	-0.000117479
								}
							}
							JOINT right_hand_cp_3_joint
							{
								OFFSET	-0.01229	-0.06975	-0.21577
								CHANNELS 3  Zrotation Xrotation Yrotation
								End Site
								{
									OFFSET	-2.7059e-05	-0.000153569	-0.000475062
								}
							}
							JOINT right_hand_cp_4_joint
							{
								OFFSET	-0.01229	0.05553	-0.21577
								CHANNELS 3  Zrotation Xrotation Yrotation
								End Site
								{
									OFFSET	-2.75388e-05	0.000124429	-0.000483486
								}
							}
						}
					}
				}
			}
		}
	}
	JOINT upper_left_leg_x_joint
	{
		OFFSET	-0.106044	-0.001956	-0.144312
		CHANNELS 3  Zrotation Xrotation Yrotation
		JOINT lower_left_leg_joint
		{
			OFFSET	-0.025332	-0.01956	-0.477768
			CHANNELS 3  Zrotation Xrotation Yrotation
			JOINT left_foot_x_joint
			{
				OFFSET	-0.008988	0.036996	-0.474504
				CHANNELS 3  Zrotation Xrotation Yrotation
				JOINT left_foot_cp_1_joint
				{
					OFFSET	0.08027	0.27372	-0.12195
					CHANNELS 3  Zrotation Xrotation Yrotation
					End Site
					{
						OFFSET	0.000129375	0.000441168	-0.000196553
					}
				}
				JOINT left_foot_cp_2_joint
				{
					OFFSET	-0.09166	0.27372	-0.12195
					CHANNELS 3  Zrotation Xrotation Yrotation
					End Site
					{
						OFFSET	-0.000146252	0.000436747	-0.000194583
					}
				}
				JOINT left_foot_cp_3_joint
				{
					OFFSET	-0.09166	-0.07769	-0.12195
					CHANNELS 3  Zrotation Xrotation Yrotation
					End Site
					{
						OFFSET	-0.0002677	-0.0002269	-0.000356164
					}
				}
				JOINT left_foot_cp_4_joint
				{
					OFFSET	0.08027	-0.07769	-0.12195
					CHANNELS 3  Zrotation Xrotation Yrotation
					End Site
					{
						OFFSET	0.000242682	-0.000234882	-0.000368695
					}
				}
			}
		}
	}
	JOINT upper_right_leg_x_joint
	{
		OFFSET	0.106044	-0.001956	-0.1443
		CHANNELS 3  Zrotation Xrotation Yrotation
		JOINT lower_right_leg_joint
		{
			OFFSET	0.025332	-0.01956	-0.47778
			CHANNELS 3  Zrotation Xrotation Yrotation
			JOINT right_foot_x_joint
			{
				OFFSET	0.008988	0.036996	-0.474504
				CHANNELS 3  Zrotation Xrotation Yrotation
				JOINT right_foot_cp_1_joint
				{
					OFFSET	0.10495	0.2684	-0.12195
					CHANNELS 3  Zrotation Xrotation Yrotation
					End Site
					{
						OFFSET	0.00016769	0.000428851	-0.000194852
					}
				}
				JOINT right_foot_cp_2_joint
				{
					OFFSET	-0.06698	0.2684	-0.12195
					CHANNELS 3  Zrotation Xrotation Yrotation
					End Site
					{
						OFFSET	-0.000110777	0.000443902	-0.000201691
					}
				}
				JOINT right_foot_cp_3_joint
				{
					OFFSET	-0.06698	-0.08301	-0.12195
					CHANNELS 3  Zrotation Xrotation Yrotation
					End Site
					{
						OFFSET	-0.00020671	-0.00025618	-0.000376355
					}
				}
				JOINT right_foot_cp_4_joint
				{
					OFFSET	0.10495	-0.08301	-0.12195
					CHANNELS 3  Zrotation Xrotation Yrotation
					End Site
					{
						OFFSET	0.000289847	-0.000229254	-0.000336796
					}
				}
			}
		}
	}
}
MOTION
Frames:	15
Frame Time: 1
0	0	0	-90	-3.50824e-15	-90	-0	0	-0	-0	0	-0	-0	0	-0	-0	0	-0	-0	0	-0	-0	0	-0	-0	0	-0	-0	0	-0	-0	0	-0	-0	0	-0	-0	0	-0	-0	0	-0	-0	0	-0	-0	0	-0	-0	0	-0	-0	0	-0	-0	0	-0	-0	0	-0	-0	0	-0	-0	0	-0	-0	0	-0	-0	0	-0	-0	0	-0	-0	0	-0	-0	0	-0	-0	0	-0	-0	0	-0	-0	0	-0	-0	0	-0	-0	0	-0	-0	0	-0	-0	0	-0	-0	0	-0	-0	0	-0
0	0.8	0	-90	-3.50824e-15	-90	-0	0	-0	-0	0	-0	-0	0	-0	-39.1298	-34.4664	61.8916	-0	53.4937	-0	-29.011	30.0323	47.5119	-0	0	-0	-0	0	-0	-0	0	-0	-0	0	-0	-0	0	-0	-0	0	-0	0.630309	-11.8201	-38.6928	-0	84.1028	-0	54.4798	16.0862	-15.5292	-0	0	-0	-0	0	-0	-0	0	-0	-0	0	-0	-0	0	-0	-30.385	84.1329	19.8026	-180	-85.2743	-180	0.642272	10.5738	-2.35054	-0	0	-0	-0	0	-0	-0	0	-0	-0	0	-0	18.8546	81.831	-31.1103	-0	-72.5544	-0	0.800819	-9.70457	4.27661	-0	0	-0	-0	0	-0	-0	0	-0	-0	0	-0
0	0.819612	0.0980581	-90	8.82523	-90	-0	0	-0	-0	0	-0	-0	0	-0	15.809	-41.5423	53.4831	-180	81.4156	-180	-23.8095	-19.4439	24.4079	-0	0	-0	-0	0	-0	-0	0	-0	-0	0	-0	-0	0	-0	-0	0	-0	19.0798	-8.57543	-32.1992	-0	81.3181	-0	60.9562	16.2519	-14.4952	-0	0	-0	-0	0	-0	-0	0	-0	-0	0	-0	-0	0	-0	-42.9522	77.8822	45.1976	-180	-86.8255	-180	2.34447	11.5618	-9.02487	-0	0	-0	-0	0	-0	-0	0	-0	-0	0	-0	-14.7057	81.1569	14.9794	-0	-70.9726	-0	-0.26187	-9.35763	-2.2472	-0	0	-0	-0	0	-0	-0	0	-0	-0	0	-0
0	0.839223	0.196116	-90	17.6505	-90	-0	0	-0	-0	0	-0	-0	0	-0	24.3825	-39.4423	56.7983	-0	84.1767	-0	-7.59192	-19.6984	30.9325	-0	0	-0	-0	0	-0	-0	0	-0	-0	0	-0	-0	0	-0	-0	0	-0	38.3755	-1.52554	-26.5032	-0	75.0089	-0	65.619	14.3919	-12.8223	-0	0	-0	-0	0	-0	-0	0	-0	-0	0	-0	-0	0	-0	-33.0156	69.6173	48.2417	-0	-89.5877	-0	3.99136	11.071	-15.9335	-0	0	-0	-0	0	-0	-0	0	-0	-0	0	-0	-24.2069	75.6132	36.707	-0	-66.8441	-0	-1.54484	-11.0262	-8.71432	-0	0	-0	-0	0	-0	-0	0	-0	-0	0	-0
0	0.858835	0.294174	-90	26.4757	-90	-0	0	-0	-0	0	-0	-0	0	-0	1.61977	-12.5106	32.2098	-0	78.8834	-0	-51.2954	-8.95554	16.3736	-0	0	-0	-0	0	-0	-0	0	-0	-0	0	-0	-0	0	-0	-0	0	-0	55.5722	7.62594	-21.5525	-0	64.2397	-0	70.0755	10.3915	-13.3497	-0	0	-0	-0	0	-0	-0	0	-0	-0	0	-0	-0	0	-0	-21.9274	60.1681	49.5551	-0	-82.7485	-0	4.48114	10.4083	-23.1023	-0	0	-0	-0	0	-0	-0	0	-0	-0	0	-0	-18.5504	68.3479	43.2855	-0	-59.8471	-0	-2.77918	-12.982	-15.1535	-0	0	-0	-0	0	-0	-0	0	-0	-0	0	-0
0	0.858835	0.294174	-90	26.4757	-90	-0	0	-0	-0	0	-0	-0	0	-0	4.15354	-11.5484	37.1163	-0	84.4289	-0	-37.5751	-8.51515	-9.53157	-0	0	-0	-0	0	-0	-0	0	-0	-0	0	-0	-0	0	-0	-0	0	-0	38.801	2.91327	-15.9464	-0	76.4508	-0	43.0035	14.2254	1.83461	-0	0	-0	-0	0	-0	-0	0	-0	-0	0	-0	-0	0	-0	-27.4534	58.1915	50.617	-0	-83.4245	-0	1.82612	8.34657	-14.6667	-0	0	-0	-0	0	-0	-0	0	-0	-0	0	-0	-22.5734	66.6852	44.685	-0	-61.1376	-0	-0.58505	-7.92049	-8.73314	-0	0	-0	-0	0	-0	-0	0	-0	-0	0	-0
0	0.878446	0.392232	-90	35.3009	-90	-0	0	-0	-0	0	-0	-0	0	-0	18.8383	-16.2639	38.0166	-0	76.5769	-0	-40.3495	-12.3323	12.4685	-0	0	-0	-0	0	-0	-0	0	-0	-0	0	-0	-0	0	-0	-0	0	-0	38.801	2.91327	-15.9464	-0	76.4508	-0	43.0035	14.2254	1.83461	-0	0	-0	-0	0	-0	-0	0	-0	-0	0	-0	-0	0	-0	-9.52795	49.5195	49.1732	-0	-72.4903	-0	3.73779	8.16661	-27.5763	-0	0	-0	-0	0	-0	-0	0	-0	-0	0	-0	-6.40026	74.3862	0.309167	-0	-66.1966	-0	-0.00234495	-6.04711	-0.0110753	-0	0	-0	-0	0	-0	-0	0	-0	-0	0	-0
0	0.898058	0.49029	-90	44.1261	-90	-0	0	-0	-0	0	-0	-0	0	-0	12.7725	-49.3458	44.4274	-0	74.2563	-0	-13.6626	-1.68935	50.1518	-0	0	-0	-0	0	-0	-0	0	-0	-0	0	-0	-0	0	-0	-0	0	-0	38.801	2.91327	-15.9464	-0	76.4508	-0	43.0035	14.2254	1.83461	-0	0	-0	-0	0	-0	-0	0	-0	-0	0	-0	-0	0	-0	5.93718	37.8983	47.5499	-0	-56.764	-0	1.92727	5.5629	-30.7737	-0	0	-0	-0	0	-0	-0	0	-0	-0	0	-0	-16.3953	71.5656	20.1983	-0	-70.3553	-0	-0.0502494	-2.41818	-5.17089	-0	0	-0	-0	0	-0	-0	0	-0	-0	0	-0
0	0.898058	0.49029	-90	44.1261	-90	-0	0	-0	-0	0	-0	-0	0	-0	-32.3597	-36.3776	36.7389	-0	81.2157	-0	-63.7907	19.1342	37.769	-0	0	-0	-0	0	-0	-0	0	-0	-0	0	-0	-0	0	-0	-0	0	-0	38.801	2.91327	-15.9464	-0	76.4508	-0	43.0035	14.2254	1.83461	-0	0	-0	-0	0	-0	-0	0	-0	-0	0	-0	-0	0	-0	7.84004	38.533	47.701	-0	-55.8827	-0	2.62996	4.20909	-35.2677	-0	0	-0	-0	0	-0	-0	0	-0	-0	0	-0	-15.3608	71.2743	19.6552	-0	-70.3245	-0	-0.0865626	-1.17247	-6.07432	-0	0	-0	-0	0	-0	-0	0	-0	-0	0	-0
0	0.91767	0.588348	-90	52.9514	-90	-0	0	-0	-0	0	-0	-0	0	-0	-14.0782	-45.7303	33.2763	-0	78.5904	-0	-70.5293	16.8051	52.0892	-0	0	-0	-0	0	-0	-0	0	-0	-0	0	-0	-0	0	-0	-0	0	-0	38.801	2.91327	-15.9464	-0	76.4508	-0	43.0035	14.2254	1.83461	-0	0	-0	-0	0	-0	-0	0	-0	-0	0	-0	-0	0	-0	45.2791	69.6522	0.36635	-0	-83.3892	-0	0.0519958	13.7352	-0.145635	-0	0	-0	-0	0	-0	-0	0	-0	-0	0	-0	-16.1489	66.3877	30.6414	-0	-72.0281	-0	0.981357	2.53556	-11.8042	-0	0	-0	-0	0	-0	-0	0	-0	-0	0	-0
0	0.937281	0.686406	-90	61.7766	-90	-0	0	-0	-0	0	-0	-0	0	-0	5.3664	-51.7348	30.1793	-0	71.4561	-0	-62.7423	11.5564	60.3772	-0	0	-0	-0	0	-0	-0	0	-0	-0	0	-0	-0	0	-0	-0	0	-0	38.801	2.91327	-15.9464	-0	76.4508	-0	43.0035	14.2254	1.83461	-0	0	-0	-0	0	-0	-0	0	-0	-0	0	-0	-0	0	-0	31.8426	62.8869	23.5403	-0	-78.9721	-0	-2.1742	15.5317	-9.90303	-0	0	-0	-0	0	-0	-0	0	-0	-0	0	-0	-11.9729	60.6474	36.4161	-0	-71.6667	-0	3.70453	6.31974	-17.2737	-0	0	-0	-0	0	-0	-0	0	-0	-0	0	-0
0	0.956893	0.784465	-90	70.6018	-90	-0	0	-0	-0	0	-0	-0	0	-0	25.3248	-49.5546	26.3366	-0	60.6326	-0	-35.9934	4.32269	66.6216	-0	0	-0	-0	0	-0	-0	0	-0	-0	0	-0	-0	0	-0	-0	0	-0	38.801	2.91327	-15.9464	-0	76.4508	-0	43.0035	14.2254	1.83461	-0	0	-0	-0	0	-0	-0	0	-0	-0	0	-0	-0	0	-0	34.3968	53.2616	32.698	-0	-71.3048	-0	-1.89799	14.2106	-18.3518	-0	0	-0	-0	0	-0	-0	0	-0	-0	0	-0	-2.96076	53.5743	37.9525	-0	-70.165	-0	7.08984	7.06493	-22.4941	-0	0	-0	-0	0	-0	-0	0	-0	-0	0	-0
0	0.976505	0.882523	-90	79.427	-90	-0	0	-0	-0	0	-0	-0	0	-0	-3.85982	-70.6966	47.0619	-0	79.687	-0	-23.6442	26.2103	-22.1493	-0	0	-0	-0	0	-0	-0	0	-0	-0	0	-0	-0	0	-0	-0	0	-0	38.801	2.91327	-15.9464	-0	76.4508	-0	43.0035	14.2254	1.83461	-0	0	-0	-0	0	-0	-0	0	-0	-0	0	-0	-0	0	-0	42.6037	41.9037	35.7369	-0	-59.0897	-0	-1.35168	12.544	-20.6357	-0	0	-0	-0	0	-0	-0	0	-0	-0	0	-0	3.58614	46.1389	39.7251	-0	-67.3429	-0	7.03709	5.03211	-24.2616	-0	0	-0	-0	0	-0	-0	0	-0	-0	0	-0
0	0.996116	0.980581	-90	88.2523	-90	-0	0	-0	-0	0	-0	-0	0	-0	-3.85982	-70.6966	47.0619	-0	79.687	-0	-23.6442	26.2103	-22.1493	-0	0	-0	-0	0	-0	-0	0	-0	-0	0	-0	-0	0	-0	-0	0	-0	38.801	2.91327	-15.9464	-0	76.4508	-0	43.0035	14.2254	1.83461	-0	0	-0	-0	0	-0	-0	0	-0	-0	0	-0	-0	0	-0	60.1958	42.226	30.4673	-0	-68.3002	-0	8.09137	16.4971	-22.081	-0	0	-0	-0	0	-0	-0	0	-0	-0	0	-0	15.5736	38.8043	39.18	-0	-61.6361	-0	11.083	6.03094	-29.8489	-0	0	-0	-0	0	-0	-0	0	-0	-0	0	-0
0	1	1	-0	90	180	-0	0	-0	-0	0	-0	-0	0	-0	-3.85982	-70.6966	47.0619	-0	79.687	-0	-23.6442	26.2103	-22.1493	-0	0	-0	-0	0	-0	-0	0	-0	-0	0	-0	-0	0	-0	-0	0	-0	38.801	2.91327	-15.9464	-0	76.4508	-0	43.0035	14.2254	1.83461	-0	0	-0	-0	0	-0	-0	0	-0	-0	0	-0	-0	0	-0	52.0173	39.3914	33.3214	-0	-68.2699	-0	0.978155	3.62348	-8.07168	-0	0	-0	-0	0	-0	-0	0	-0	-0	0	-0	7.71217	36.7702	40.9429	-0	-63.221	-0	1.9386	-3.46298	-16.8936	-0	0	-0	-0	0	-0	-0	0	-0	-0	0	-0
